<svg xmlns="http://www.w3.org/2000/svg" viewBox="0 0 1440 320"><path fill="#f5f5f5" fill-opacity="1" d="M0,192L30,192C60,192,120,192,180,176C240,160,300,128,360,144C420,160,480,224,540,234.7C600,245,660,203,720,197.3C780,192,840,224,900,229.3C960,235,1020,213,1080,186.7C1140,160,1200,128,1260,144C1320,160,1380,224,1410,256L1440,288L1440,0L1410,0C1380,0,1320,0,1260,0C1200,0,1140,0,1080,0C1020,0,960,0,900,0C840,0,780,0,720,0C660,0,600,0,540,0C480,0,420,0,360,0C300,0,240,0,180,0C120,0,60,0,30,0L0,0Z"></path></svg>